<svg xmlns="http://www.w3.org/2000/svg" viewBox="0 0 110 110">
  <defs/>
  <path fill="#ff235b" d="M20.328251 0h69.343511C100.93362 0 110 9.4389831 110 21.163658v67.672684C110 100.56101 100.93361 110 89.671762 110H20.328251C9.0664004 110 0 100.56101 0 88.836342V21.163658C0 9.4389831 9.0664004 0 20.328251 0z"/>
  <path fill="#f8f8f2" d="M70.511048 45.472045q0 4.93913-2.557141 8.266906-2.557131 3.292753-6.79659 5.044207l12.21368 20.492111H60.888139L50.794188 60.709774h-3.129126v18.565495H36.629003V30.724731h14.669883q9.589253 0 14.400708 3.643048 4.811454 3.608006 4.811454 11.104266zm-11.372526 0q0-3.432863-1.951495-5.044207-1.951498-1.646376-5.854495-1.646376h-3.66747v14.046724h4.104875q3.667471 0 5.51803-1.786486 1.850555-1.786497 1.850555-5.569655z"/>
</svg>