<?xml version="1.0" standalone="no"?>
<!DOCTYPE svg PUBLIC "-//W3C//DTD SVG 20010904//EN"
 "http://www.w3.org/TR/2001/REC-SVG-20010904/DTD/svg10.dtd">
<svg version="1.0" xmlns="http://www.w3.org/2000/svg"
 width="700.000000pt" height="700.000000pt" viewBox="0 0 700.000000 700.000000"
 preserveAspectRatio="xMidYMid meet">
<metadata>
Created by potrace 1.11, written by Peter Selinger 2001-2013
</metadata>
<g transform="translate(0.000000,700.000000) scale(0.100000,-0.100000)"
fill="#000000" stroke="none">
<path d="M1080 6985 c-255 -43 -492 -167 -685 -360 -202 -201 -333 -460 -380
-750 -22 -135 -22 -4615 0 -4750 23 -141 60 -259 124 -390 194 -396 548 -659
971 -725 89 -14 4691 -14 4780 0 562 87 1001 534 1095 1115 22 135 22 4615 0
4750 -23 141 -60 259 -125 392 -158 323 -432 566 -761 673 -193 63 -47 60
-2609 59 -1836 -1 -2351 -4 -2410 -14z m2580 -1974 c69 -12 175 -39 236 -59
157 -54 252 -110 355 -212 73 -72 94 -100 133 -180 66 -135 87 -225 93 -400 8
-216 -26 -368 -114 -514 -79 -130 -291 -309 -430 -362 -24 -9 -43 -20 -43 -24
0 -5 643 -1089 752 -1267 l20 -33 -394 0 -393 1 -320 589 -319 590 -103 0
-103 0 0 -590 0 -590 -345 0 -345 0 0 1541 0 1541 598 -5 c560 -3 605 -5 722
-26z"/>
<path d="M3030 4085 l0 -458 193 6 c264 8 344 33 436 133 60 65 89 137 104
257 19 159 -23 319 -104 392 -96 87 -195 114 -441 122 l-188 6 0 -458z"/>
</g>
</svg>
